<?xml version="1.0" standalone="no"?>
<!DOCTYPE svg PUBLIC "-//W3C//DTD SVG 20010904//EN"
 "http://www.w3.org/TR/2001/REC-SVG-20010904/DTD/svg10.dtd">
<svg version="1.0" xmlns="http://www.w3.org/2000/svg"
 width="512.000000pt" height="512.000000pt" viewBox="0 0 512.000000 512.000000"
 preserveAspectRatio="xMidYMid meet">

<g transform="translate(0.000000,512.000000) scale(0.100000,-0.100000)"
fill="#FFF" stroke="none">
<path d="M2477 5106 c-64 -24 -111 -61 -195 -154 -244 -273 -454 -590 -583
-885 l-43 -98 -76 -41 c-510 -279 -879 -740 -1030 -1286 -61 -221 -87 -473
-71 -687 l10 -128 -60 -95 c-114 -183 -229 -428 -308 -658 -53 -154 -121 -425
-121 -481 0 -93 69 -203 155 -246 73 -36 317 -67 595 -74 231 -6 378 3 586 34
l111 16 62 -37 c288 -175 695 -286 1051 -286 357 0 762 110 1051 286 l62 37
111 -16 c346 -51 688 -50 1024 3 68 11 138 27 155 36 88 44 157 153 157 247 0
48 -63 306 -108 442 -76 230 -185 468 -305 666 l-76 127 10 128 c11 149 0 342
-31 510 -108 599 -491 1134 -1031 1439 l-116 65 -37 88 c-56 129 -166 329
-261 473 -162 244 -392 512 -478 556 -63 31 -155 40 -210 19z m136 -151 c54
-25 256 -259 380 -438 420 -605 590 -1279 481 -1902 -23 -133 -87 -378 -129
-491 -54 -148 -173 -384 -262 -519 -429 -652 -1066 -1053 -1843 -1162 -274
-38 -885 -16 -1007 37 -46 20 -83 69 -83 111 0 43 67 297 114 437 156 451 387
826 697 1127 184 178 338 289 547 394 222 111 464 170 832 202 194 17 631 2
655 -23 7 -7 -22 -157 -48 -251 l-22 -79 -40 6 c-144 20 -345 27 -487 17 -531
-41 -874 -194 -1245 -554 -255 -248 -452 -535 -603 -881 -67 -151 -74 -197
-40 -252 36 -58 83 -68 283 -61 220 8 336 21 520 58 344 68 687 217 949 411
437 324 796 954 884 1553 28 185 25 500 -5 670 -60 339 -208 703 -411 1013
-80 123 -106 145 -170 145 -62 0 -89 -22 -164 -137 -300 -454 -457 -955 -445
-1409 l4 -125 -89 -17 c-49 -10 -123 -28 -164 -41 -42 -13 -78 -21 -81 -19
-10 11 -4 407 8 495 77 577 333 1103 774 1592 96 105 141 126 210 93z m10
-686 c32 -50 56 -93 54 -95 -2 -3 -57 -3 -121 -2 l-117 3 58 93 c31 50 60 92
63 92 3 0 31 -41 63 -91z m111 -256 c38 -6 40 -9 81 -97 45 -97 111 -274 104
-280 -2 -2 -35 3 -74 12 -53 12 -124 16 -285 16 -161 0 -232 -4 -285 -16 -38
-9 -72 -14 -74 -12 -6 6 65 195 109 291 33 71 42 82 67 86 47 7 315 7 357 0z
m-1190 -393 c-19 -71 -41 -184 -51 -252 l-17 -123 -82 -87 c-96 -102 -186
-233 -256 -371 -51 -103 -112 -272 -124 -343 -5 -37 -17 -51 -96 -120 -81 -72
-170 -164 -255 -266 -27 -32 -34 -37 -39 -23 -11 28 15 314 41 440 99 491 394
930 820 1220 44 30 83 55 86 55 3 0 -9 -58 -27 -130z m2079 83 c430 -286 732
-731 832 -1228 25 -125 52 -412 41 -440 -4 -12 -20 1 -65 52 -79 92 -161 176
-248 255 -40 36 -73 72 -73 81 0 39 -67 235 -116 337 -72 150 -166 290 -268
398 l-82 87 -17 123 c-10 68 -32 181 -51 252 -18 72 -31 130 -28 130 2 0 36
-21 75 -47z m-758 -212 c49 -12 93 -25 99 -31 20 -20 46 -210 53 -376 3 -95 4
-178 1 -186 -5 -12 -25 -12 -134 0 -147 15 -524 11 -667 -8 -49 -6 -95 -9
-104 -6 -31 12 -1 461 38 563 8 22 75 42 212 64 96 15 402 3 502 -20z m-1392
-703 l5 -77 -96 -55 c-53 -31 -116 -68 -139 -82 l-43 -26 14 39 c41 115 112
245 192 353 l49 65 6 -70 c4 -38 9 -105 12 -147z m2278 100 c60 -91 125 -217
154 -297 l15 -43 -24 15 c-13 9 -76 46 -140 83 l-117 67 5 36 c3 20 8 85 12
144 7 127 6 127 95 -5z m-72 -370 c342 -193 656 -499 878 -856 168 -270 311
-618 388 -944 31 -134 29 -171 -14 -212 -24 -23 -46 -31 -137 -46 -345 -58
-766 -52 -1099 15 -247 50 -450 121 -673 235 -118 59 -332 194 -332 208 0 7
195 192 202 192 2 0 49 -30 104 -66 195 -129 442 -233 699 -294 311 -74 789
-105 871 -56 41 24 64 65 64 111 0 117 -262 597 -460 840 -160 198 -416 434
-567 524 l-70 41 41 170 c23 93 43 170 45 170 2 0 29 -14 60 -32z m-936 -249
c67 -6 124 -13 126 -15 8 -8 -59 -165 -121 -284 -58 -113 -176 -300 -188 -300
-12 0 -130 187 -188 300 -63 120 -129 276 -121 284 7 7 194 23 287 25 46 0
138 -4 205 -10z m-613 -134 c69 -176 195 -405 291 -532 38 -51 40 -57 28 -79
-16 -30 -184 -194 -199 -194 -15 0 -124 140 -202 260 -83 126 -162 278 -217
418 -46 115 -48 127 -23 135 9 3 44 15 77 27 84 31 199 59 207 52 3 -4 21 -43
38 -87z m-435 -190 c80 -206 225 -456 368 -633 l67 -82 -68 -44 c-98 -63 -204
-119 -315 -166 l-97 -41 -39 30 c-93 74 -223 235 -303 376 -40 69 -102 214
-122 281 -5 17 11 38 88 112 142 135 360 294 376 274 4 -4 24 -52 45 -107z
m1861 77 c78 -51 222 -172 312 -264 l73 -74 -27 -75 c-81 -225 -246 -470 -406
-601 l-44 -36 -100 43 c-124 54 -295 151 -372 211 -2 1 26 38 62 82 177 219
350 518 415 715 7 20 16 37 20 37 4 0 34 -17 67 -38z m-2457 -553 c67 -161
184 -338 312 -473 l70 -74 -113 -26 c-62 -14 -152 -32 -201 -40 l-87 -13 -39
46 c-47 56 -154 219 -186 282 l-24 46 60 93 c63 98 170 243 174 238 2 -2 17
-37 34 -79z m3014 5 c67 -89 167 -246 167 -263 0 -31 -144 -258 -211 -334
l-34 -37 -98 15 c-95 14 -274 53 -290 62 -4 3 24 38 62 79 129 136 247 315
313 477 18 42 35 74 38 70 4 -5 27 -35 53 -69z m-3327 -482 c15 -26 45 -71 67
-100 21 -30 36 -57 32 -60 -4 -4 -59 -9 -122 -10 l-116 -4 7 26 c11 45 88 206
96 201 5 -3 21 -26 36 -53z m3680 -146 l6 -26 -108 0 c-60 0 -115 4 -121 8 -9
6 1 28 36 79 27 40 59 89 71 110 l23 38 43 -91 c24 -51 46 -104 50 -118z
m-1815 -87 c41 -30 86 -61 99 -70 14 -9 21 -21 17 -25 -11 -12 -403 -12 -414
0 -4 4 3 16 17 25 13 9 60 42 105 73 44 32 85 56 90 54 6 -2 44 -28 86 -57z
m-91 -252 c178 0 219 3 315 24 l110 24 106 -47 c58 -26 166 -67 238 -91 l133
-45 -69 -32 c-247 -117 -482 -175 -763 -187 -312 -13 -604 47 -904 187 l-69
32 129 43 c71 24 178 65 238 92 l110 48 110 -24 c97 -21 137 -24 316 -24z"/>
</g>
</svg>
