<?xml version="1.0" standalone="no"?>
<!DOCTYPE svg PUBLIC "-//W3C//DTD SVG 20010904//EN"
 "http://www.w3.org/TR/2001/REC-SVG-20010904/DTD/svg10.dtd">
<svg version="1.0" xmlns="http://www.w3.org/2000/svg"
 width="512.000000pt" height="512.000000pt" viewBox="0 0 512.000000 512.000000"
 preserveAspectRatio="xMidYMid meet">

<g transform="translate(0.000000,512.000000) scale(0.100000,-0.100000)"
fill="#FFF" stroke="none">
<path d="M1905 5114 c-11 -2 -45 -9 -75 -15 -76 -15 -224 -88 -288 -143 -179
-154 -274 -368 -258 -586 12 -170 74 -305 205 -442 l85 -89 -147 -147 -146
-146 -88 85 c-143 138 -272 196 -458 206 -82 5 -116 2 -185 -16 -214 -53 -380
-188 -475 -386 -52 -108 -69 -181 -68 -300 1 -199 64 -340 231 -517 l54 -57
-87 -93 c-101 -108 -164 -223 -189 -350 -64 -312 96 -627 389 -769 109 -53
204 -72 330 -66 182 9 316 70 463 211 l83 80 146 -146 147 -147 -87 -90 c-218
-230 -265 -514 -130 -791 39 -81 60 -109 137 -186 78 -79 104 -98 186 -137
125 -59 182 -72 315 -71 188 2 327 62 482 207 l83 79 77 -72 c98 -90 168 -136
257 -171 337 -129 714 24 876 356 50 102 70 187 70 300 0 190 -62 336 -203
482 l-91 94 147 147 147 147 72 -71 c150 -147 288 -211 473 -221 133 -7 222
12 345 74 277 139 436 457 376 752 -30 148 -88 253 -210 378 l-69 73 69 73
c120 123 179 229 208 370 87 422 -249 836 -680 837 -194 0 -351 -67 -507 -218
l-78 -76 -146 146 -147 147 87 90 c218 229 265 512 131 789 -51 106 -154 223
-252 289 -130 86 -306 126 -458 105 -162 -24 -281 -84 -414 -209 l-80 -75 -83
78 c-145 137 -286 201 -461 209 -50 2 -100 2 -111 -1z m188 -159 c95 -20 190
-73 282 -159 l80 -74 -57 -58 -57 -58 -70 67 c-83 78 -143 111 -229 127 -125
22 -243 -21 -340 -125 -65 -69 -97 -137 -108 -228 -7 -61 15 -161 48 -216 11
-20 199 -215 417 -434 l396 -397 -58 -57 -57 -58 -391 390 c-232 232 -406 414
-430 450 -80 122 -106 273 -71 414 28 109 70 181 156 266 137 135 309 188 489
150z m1171 -5 c43 -11 101 -32 129 -47 77 -41 195 -164 235 -245 108 -221 70
-441 -109 -631 l-78 -82 -57 57 -58 57 70 73 c130 137 162 267 103 425 -21 56
-97 148 -130 158 -34 11 -68 -4 -84 -36 -19 -36 -13 -63 25 -104 62 -67 80
-137 56 -219 -13 -45 -30 -71 -81 -124 l-64 -67 -168 168 -168 168 59 56 c33
31 81 66 108 78 68 31 78 43 78 85 0 46 -28 74 -74 73 -81 -2 -124 -38 -539
-451 l-397 -397 -58 58 -57 57 370 371 c450 450 485 479 638 519 93 25 156 25
251 0z m-1189 -316 c17 -8 59 -42 93 -77 l62 -62 -165 -165 -165 -165 -51 50
c-76 75 -103 125 -103 199 -1 171 178 290 329 220z m1185 -719 l475 -475 -58
-57 -57 -58 -477 477 -478 478 55 55 c30 30 57 55 60 55 3 0 219 -214 480
-475z m-535 -245 l-165 -165 -167 167 -168 168 165 165 165 165 167 -167 168
-168 -165 -165z m-985 5 l55 -55 -475 -475 -475 -475 -57 57 -58 58 472 472
c260 260 475 473 478 473 3 0 30 -25 60 -55z m895 -535 l-475 -475 -57 58 -58
57 475 475 475 475 57 -57 58 -58 -475 -475z m-1806 535 c95 -23 176 -71 266
-157 l80 -77 -57 -58 -57 -57 -75 72 c-103 100 -162 127 -281 127 -77 0 -99
-4 -148 -27 -75 -35 -166 -123 -203 -195 -27 -53 -29 -67 -29 -163 0 -163 -12
-147 451 -610 216 -217 394 -400 394 -405 0 -6 -24 -34 -53 -63 l-52 -52 -406
408 c-251 251 -417 425 -434 455 -47 81 -67 162 -67 267 0 164 55 287 181 403
136 126 313 173 490 132z m3766 -16 c177 -65 318 -223 360 -400 43 -183 -10
-354 -159 -514 l-74 -80 -58 57 -58 57 68 72 c44 46 80 96 99 138 27 58 31 77
31 151 0 75 -4 93 -32 153 -77 165 -248 260 -413 229 -119 -22 -128 -29 -557
-456 l-402 -401 -58 58 -57 57 405 404 c418 416 450 443 565 479 76 24 93 26
190 22 62 -2 109 -10 150 -26z m-2525 -314 l165 -165 -148 -147 -147 -148
-167 167 -168 168 145 145 c80 80 147 145 150 145 3 0 79 -74 170 -165z m1275
-295 l-165 -165 -147 148 -148 147 165 165 165 165 147 -147 148 -148 -165
-165z m-2550 306 c28 -13 75 -49 105 -80 l55 -56 -165 -165 -165 -165 -58 58
c-72 70 -97 119 -97 192 0 72 26 126 83 176 77 68 156 81 242 40z m3690 13
c27 -7 59 -30 96 -68 48 -47 59 -65 69 -112 19 -86 -2 -145 -83 -234 l-64 -70
-42 38 c-65 59 -128 48 -146 -26 -7 -26 12 -46 272 -310 305 -309 335 -349
369 -493 59 -253 -98 -534 -353 -630 -197 -74 -409 -22 -582 142 l-76 73 57
57 57 58 68 -65 c82 -78 119 -102 197 -124 245 -71 511 158 481 414 -15 131
-28 148 -463 584 l-397 397 58 57 57 57 43 -42 c50 -49 85 -55 122 -17 36 36
32 68 -17 121 l-41 45 44 45 c100 103 173 131 274 103z m-2505 -734 l475 -475
-58 -57 -57 -58 -477 477 -478 478 55 55 c30 30 57 55 60 55 3 0 219 -214 480
-475z m1280 -40 l475 -475 -58 -57 -57 -58 -477 477 -478 478 55 55 c30 30 57
55 60 55 3 0 219 -214 480 -475z m-1810 130 l165 -165 -48 -48 c-54 -54 -61
-91 -25 -129 35 -37 71 -30 129 24 l50 47 57 -57 57 -57 -405 -404 c-420 -418
-447 -441 -570 -482 -82 -28 -244 -26 -330 5 -231 80 -393 317 -377 551 10
144 61 251 182 378 l64 67 57 -57 58 -57 -68 -72 c-44 -46 -80 -96 -99 -138
-27 -58 -31 -77 -31 -151 0 -74 4 -93 31 -152 102 -217 362 -301 553 -178 25
16 159 143 298 283 224 225 252 256 252 285 0 72 -82 97 -135 42 l-29 -31
-163 163 c-90 90 -163 167 -163 173 0 10 310 325 320 325 3 0 79 -74 170 -165z
m2555 -335 l-165 -165 -167 167 -168 168 165 165 165 165 167 -167 168 -168
-165 -165z m-1295 315 l145 -145 -148 -148 -147 -147 -147 147 -148 148 145
145 c80 80 147 145 150 145 3 0 70 -65 150 -145z m310 -310 l55 -55 -475 -475
-475 -475 -57 57 -58 58 472 472 c260 260 475 473 478 473 3 0 30 -25 60 -55z
m895 -535 l-475 -475 -57 58 -58 57 475 475 475 475 57 -57 58 -58 -475 -475z
m-3125 205 l165 -165 -50 -51 c-95 -97 -170 -123 -267 -95 -77 22 -151 100
-168 178 -19 83 3 144 80 231 34 37 65 67 68 67 4 0 81 -74 172 -165z m1300
20 l145 -145 -165 -165 -165 -165 -147 147 -148 148 162 162 c90 90 165 163
168 163 3 0 70 -65 150 -145z m1260 -20 l165 -165 -148 -147 -147 -148 -167
167 -168 168 145 145 c80 80 147 145 150 145 3 0 79 -74 170 -165z m1297 -24
c13 -46 13 -63 3 -109 -10 -45 -22 -65 -69 -113 -112 -114 -234 -104 -366 30
l-50 51 165 165 165 165 68 -68 c55 -54 71 -77 84 -121z m-1455 -618 c436
-438 447 -452 483 -590 97 -372 -260 -748 -635 -669 -113 24 -191 67 -287 159
l-84 81 58 58 57 58 77 -75 c43 -42 97 -84 122 -95 197 -87 415 -3 510 198 29
60 32 77 32 157 0 156 7 147 -458 612 l-401 403 54 55 c30 30 57 55 60 55 3 0
188 -183 412 -407z m-1210 -100 c258 -258 468 -472 468 -478 0 -5 -24 -33 -52
-62 l-53 -53 -477 477 -478 478 52 52 c29 29 57 53 63 53 5 0 220 -210 477
-467z m748 122 l165 -165 -160 -160 c-88 -88 -164 -160 -170 -160 -5 0 -83 73
-172 162 l-163 163 162 162 c90 90 165 163 168 163 3 0 79 -74 170 -165z
m-990 -330 l54 -54 -67 -70 c-95 -98 -131 -177 -131 -286 1 -110 28 -177 106
-260 97 -104 215 -147 340 -125 120 22 134 34 561 458 l397 397 58 -58 57 -58
-405 -403 c-395 -393 -407 -404 -490 -445 -159 -78 -314 -78 -475 0 -84 41
-196 147 -243 230 -38 68 -72 192 -72 264 0 72 34 197 70 260 29 50 164 205
179 205 4 0 31 -25 61 -55z m330 -331 l165 -165 -63 -59 c-78 -72 -121 -93
-192 -93 -64 0 -119 25 -166 75 -100 105 -94 221 17 341 33 37 64 67 67 67 4
0 81 -75 172 -166z m1222 98 c117 -124 120 -234 9 -343 -47 -46 -67 -59 -109
-68 -92 -19 -147 2 -240 92 l-62 62 162 162 c90 90 166 163 169 163 4 0 35
-31 71 -68z"/>
</g>
</svg>
